<svg xmlns="http://www.w3.org/2000/svg" xmlns:xlink="http://www.w3.org/1999/xlink" width="500" zoomAndPan="magnify" viewBox="0 0 375 149.999998" height="200" preserveAspectRatio="xMidYMid meet" version="1.0"><defs><g/><clipPath id="id1"><path d="M 5.507812 102 L 22 102 L 22 110 L 5.507812 110 Z M 5.507812 102 " clip-rule="nonzero"/></clipPath><clipPath id="id2"><path d="M 72 72 L 79.757812 72 L 79.757812 94 L 72 94 Z M 72 72 " clip-rule="nonzero"/></clipPath><clipPath id="id3"><path d="M 52 57.5 L 61 57.5 L 61 66 L 52 66 Z M 52 57.5 " clip-rule="nonzero"/></clipPath><clipPath id="id4"><path d="M 33 57.5 L 42 57.5 L 42 66 L 33 66 Z M 33 57.5 " clip-rule="nonzero"/></clipPath><clipPath id="id5"><path d="M 8 112 L 19 112 L 19 128.75 L 8 128.75 Z M 8 112 " clip-rule="nonzero"/></clipPath></defs><rect x="-37.5" width="450" fill="rgb(100%, 100%, 100%)" y="-15" height="179.999997" fill-opacity="1"/><rect x="-37.5" width="450" fill="rgb(100%, 100%, 100%)" y="-15" height="179.999997" fill-opacity="1"/><rect x="-37.5" width="450" fill="rgb(100%, 100%, 100%)" y="-15" height="179.999997" fill-opacity="1"/><rect x="-37.5" width="450" fill="rgb(100%, 100%, 100%)" y="-15" height="179.999997" fill-opacity="1"/><g fill="rgb(51.368713%, 24.708557%, 14.509583%)" fill-opacity="1"><g transform="translate(34.419878, 90.962416)"><g><path d="M 2.703125 0 L 2.703125 -2.984375 L 3.609375 -2.984375 C 4.421875 -2.984375 5.175781 -3.039062 5.875 -3.15625 C 6.582031 -3.269531 7.203125 -3.503906 7.734375 -3.859375 C 8.273438 -4.222656 8.691406 -4.738281 8.984375 -5.40625 C 9.285156 -6.082031 9.4375 -6.976562 9.4375 -8.09375 L 9.4375 -42.671875 C 9.4375 -43.785156 9.285156 -44.675781 8.984375 -45.34375 C 8.691406 -46.019531 8.273438 -46.535156 7.734375 -46.890625 C 7.203125 -47.242188 6.582031 -47.476562 5.875 -47.59375 C 5.175781 -47.71875 4.421875 -47.78125 3.609375 -47.78125 L 2.703125 -47.78125 L 2.703125 -50.765625 L 23.40625 -50.765625 L 23.40625 -47.78125 L 22.46875 -47.78125 C 21.675781 -47.78125 20.925781 -47.726562 20.21875 -47.625 C 19.519531 -47.519531 18.898438 -47.289062 18.359375 -46.9375 C 17.828125 -46.59375 17.40625 -46.101562 17.09375 -45.46875 C 16.78125 -44.832031 16.625 -43.992188 16.625 -42.953125 L 16.625 -3.546875 L 30.65625 -3.546875 C 31.71875 -3.546875 32.625 -3.734375 33.375 -4.109375 C 34.132812 -4.492188 34.753906 -4.992188 35.234375 -5.609375 C 35.722656 -6.222656 36.097656 -6.910156 36.359375 -7.671875 C 36.628906 -8.429688 36.8125 -9.195312 36.90625 -9.96875 L 37.609375 -15.28125 L 41.3125 -15.28125 L 40.828125 0 Z M 2.703125 0 "/></g></g></g><g fill="rgb(64.309692%, 30.979919%, 18.429565%)" fill-opacity="1"><g transform="translate(78.71675, 90.962416)"><g><path d="M 19.546875 -35 C 16.910156 -35 14.878906 -33.925781 13.453125 -31.78125 C 12.023438 -29.644531 11.1875 -26.515625 10.9375 -22.390625 L 27.296875 -22.390625 C 27.296875 -24.265625 27.15625 -25.976562 26.875 -27.53125 C 26.59375 -29.082031 26.148438 -30.410156 25.546875 -31.515625 C 24.953125 -32.628906 24.160156 -33.488281 23.171875 -34.09375 C 22.191406 -34.695312 20.984375 -35 19.546875 -35 Z M 20.421875 0.6875 C 17.847656 0.6875 15.535156 0.253906 13.484375 -0.609375 C 11.441406 -1.472656 9.710938 -2.738281 8.296875 -4.40625 C 6.890625 -6.070312 5.804688 -8.113281 5.046875 -10.53125 C 4.296875 -12.957031 3.921875 -15.707031 3.921875 -18.78125 C 3.921875 -25.425781 5.285156 -30.425781 8.015625 -33.78125 C 10.753906 -37.132812 14.644531 -38.8125 19.6875 -38.8125 C 21.976562 -38.8125 24.035156 -38.453125 25.859375 -37.734375 C 27.691406 -37.023438 29.242188 -35.957031 30.515625 -34.53125 C 31.796875 -33.101562 32.773438 -31.332031 33.453125 -29.21875 C 34.140625 -27.101562 34.484375 -24.644531 34.484375 -21.84375 L 34.484375 -18.578125 L 10.796875 -18.578125 C 10.847656 -15.984375 11.109375 -13.753906 11.578125 -11.890625 C 12.054688 -10.023438 12.738281 -8.488281 13.625 -7.28125 C 14.519531 -6.082031 15.613281 -5.195312 16.90625 -4.625 C 18.207031 -4.0625 19.703125 -3.78125 21.390625 -3.78125 C 22.617188 -3.78125 23.757812 -3.921875 24.8125 -4.203125 C 25.863281 -4.484375 26.816406 -4.851562 27.671875 -5.3125 C 28.523438 -5.769531 29.28125 -6.296875 29.9375 -6.890625 C 30.601562 -7.484375 31.144531 -8.101562 31.5625 -8.75 C 31.882812 -8.613281 32.191406 -8.320312 32.484375 -7.875 C 32.773438 -7.4375 32.921875 -6.914062 32.921875 -6.3125 C 32.921875 -5.601562 32.664062 -4.835938 32.15625 -4.015625 C 31.644531 -3.191406 30.867188 -2.429688 29.828125 -1.734375 C 28.785156 -1.035156 27.484375 -0.457031 25.921875 0 C 24.359375 0.457031 22.523438 0.6875 20.421875 0.6875 Z M 20.421875 0.6875 "/></g></g></g><g fill="rgb(64.309692%, 30.979919%, 18.429565%)" fill-opacity="1"><g transform="translate(116.765103, 90.962416)"><g><path d="M 10.453125 -10.3125 C 10.453125 -8.09375 10.921875 -6.429688 11.859375 -5.328125 C 12.796875 -4.234375 14.25 -3.6875 16.21875 -3.6875 C 17.65625 -3.6875 18.957031 -3.914062 20.125 -4.375 C 21.289062 -4.832031 22.285156 -5.488281 23.109375 -6.34375 C 23.929688 -7.207031 24.5625 -8.25 25 -9.46875 C 25.4375 -10.695312 25.65625 -12.066406 25.65625 -13.578125 L 25.65625 -19.34375 L 21.109375 -19.125 C 19.097656 -19.039062 17.414062 -18.796875 16.0625 -18.390625 C 14.707031 -17.984375 13.613281 -17.414062 12.78125 -16.6875 C 11.945312 -15.957031 11.347656 -15.054688 10.984375 -13.984375 C 10.628906 -12.921875 10.453125 -11.695312 10.453125 -10.3125 Z M 19.0625 -35.28125 C 17.695312 -35.28125 16.59375 -35.085938 15.75 -34.703125 C 14.90625 -34.316406 14.242188 -33.773438 13.765625 -33.078125 C 13.296875 -32.390625 12.976562 -31.570312 12.8125 -30.625 C 12.644531 -29.675781 12.5625 -28.644531 12.5625 -27.53125 C 10.601562 -27.53125 9.109375 -27.863281 8.078125 -28.53125 C 7.046875 -29.207031 6.53125 -30.367188 6.53125 -32.015625 C 6.53125 -33.242188 6.863281 -34.285156 7.53125 -35.140625 C 8.207031 -35.992188 9.128906 -36.691406 10.296875 -37.234375 C 11.460938 -37.773438 12.820312 -38.171875 14.375 -38.421875 C 15.925781 -38.679688 17.582031 -38.8125 19.34375 -38.8125 C 21.519531 -38.8125 23.414062 -38.597656 25.03125 -38.171875 C 26.65625 -37.742188 28.007812 -37.046875 29.09375 -36.078125 C 30.1875 -35.109375 31.003906 -33.84375 31.546875 -32.28125 C 32.085938 -30.71875 32.359375 -28.800781 32.359375 -26.53125 L 32.359375 -8.09375 C 32.359375 -7.09375 32.4375 -6.269531 32.59375 -5.625 C 32.757812 -4.976562 33.015625 -4.457031 33.359375 -4.0625 C 33.710938 -3.664062 34.171875 -3.382812 34.734375 -3.21875 C 35.304688 -3.0625 35.984375 -2.984375 36.765625 -2.984375 L 36.984375 -2.984375 L 36.984375 0 L 27.359375 0 L 26.25 -6.109375 L 25.65625 -6.109375 C 24.914062 -5.117188 24.195312 -4.207031 23.5 -3.375 C 22.8125 -2.539062 22.050781 -1.820312 21.21875 -1.21875 C 20.382812 -0.613281 19.441406 -0.144531 18.390625 0.1875 C 17.335938 0.519531 16.066406 0.6875 14.578125 0.6875 C 13.003906 0.6875 11.539062 0.460938 10.1875 0.015625 C 8.832031 -0.429688 7.660156 -1.125 6.671875 -2.0625 C 5.691406 -3 4.925781 -4.179688 4.375 -5.609375 C 3.820312 -7.035156 3.546875 -8.71875 3.546875 -10.65625 C 3.546875 -14.425781 4.882812 -17.226562 7.5625 -19.0625 C 10.25 -20.894531 14.3125 -21.890625 19.75 -22.046875 L 25.65625 -22.25 L 25.65625 -26.53125 C 25.65625 -27.800781 25.585938 -28.972656 25.453125 -30.046875 C 25.316406 -31.128906 25.015625 -32.054688 24.546875 -32.828125 C 24.085938 -33.609375 23.421875 -34.210938 22.546875 -34.640625 C 21.679688 -35.066406 20.519531 -35.28125 19.0625 -35.28125 Z M 19.0625 -35.28125 "/></g></g></g><g fill="rgb(64.309692%, 30.979919%, 18.429565%)" fill-opacity="1"><g transform="translate(156.792254, 90.962416)"><g><path d="M 24.09375 -22.875 L 33.578125 -8.8125 C 34.804688 -6.914062 36.023438 -5.46875 37.234375 -4.46875 C 38.453125 -3.476562 39.859375 -2.984375 41.453125 -2.984375 L 41.671875 -2.984375 L 41.671875 0 L 40.65625 0 C 38.59375 0 36.894531 -0.0625 35.5625 -0.1875 C 34.238281 -0.3125 33.085938 -0.613281 32.109375 -1.09375 C 31.140625 -1.570312 30.25 -2.265625 29.4375 -3.171875 C 28.632812 -4.085938 27.734375 -5.332031 26.734375 -6.90625 L 19.625 -18.0625 L 14.375 -14.171875 L 14.375 -7.75 C 14.375 -6.707031 14.53125 -5.863281 14.84375 -5.21875 C 15.15625 -4.582031 15.578125 -4.101562 16.109375 -3.78125 C 16.640625 -3.457031 17.257812 -3.242188 17.96875 -3.140625 C 18.675781 -3.035156 19.421875 -2.984375 20.203125 -2.984375 L 20.421875 -2.984375 L 20.421875 0 L 1.28125 0 L 1.28125 -2.984375 L 1.84375 -2.984375 C 2.65625 -2.984375 3.410156 -3.039062 4.109375 -3.15625 C 4.816406 -3.269531 5.429688 -3.503906 5.953125 -3.859375 C 6.472656 -4.222656 6.890625 -4.738281 7.203125 -5.40625 C 7.515625 -6.082031 7.671875 -6.976562 7.671875 -8.09375 L 7.671875 -46.21875 C 7.671875 -47.257812 7.515625 -48.097656 7.203125 -48.734375 C 6.890625 -49.367188 6.46875 -49.859375 5.9375 -50.203125 C 5.40625 -50.554688 4.785156 -50.785156 4.078125 -50.890625 C 3.367188 -50.992188 2.625 -51.046875 1.84375 -51.046875 L 1.28125 -51.046875 L 1.28125 -54.03125 L 14.375 -54.03125 L 14.375 -26.59375 C 14.375 -25.945312 14.363281 -25.117188 14.34375 -24.109375 C 14.320312 -23.109375 14.285156 -22.117188 14.234375 -21.140625 C 14.191406 -20.035156 14.144531 -18.867188 14.09375 -17.640625 L 22.984375 -27.359375 C 23.742188 -28.210938 24.375 -28.960938 24.875 -29.609375 C 25.375 -30.265625 25.773438 -30.832031 26.078125 -31.3125 C 26.378906 -31.800781 26.585938 -32.234375 26.703125 -32.609375 C 26.816406 -32.992188 26.875 -33.363281 26.875 -33.71875 C 26.875 -34.320312 26.585938 -34.707031 26.015625 -34.875 C 25.453125 -35.050781 24.582031 -35.140625 23.40625 -35.140625 L 23.40625 -38.125 L 39.09375 -38.125 L 39.09375 -35.140625 C 37.445312 -35.140625 35.832031 -34.5625 34.25 -33.40625 C 32.664062 -32.25 30.945312 -30.613281 29.09375 -28.5 Z M 24.09375 -22.875 "/></g></g></g><g fill="rgb(64.309692%, 30.979919%, 18.429565%)" fill-opacity="1"><g transform="translate(198.381603, 90.962416)"><g><path d="M 40.171875 -38.125 L 40.171875 -35.140625 L 39.96875 -35.140625 C 39.269531 -35.140625 38.671875 -35.0625 38.171875 -34.90625 C 37.671875 -34.757812 37.21875 -34.476562 36.8125 -34.0625 C 36.414062 -33.644531 36.039062 -33.078125 35.6875 -32.359375 C 35.34375 -31.640625 34.960938 -30.710938 34.546875 -29.578125 L 23.75 0.28125 C 22.914062 2.570312 22.128906 4.582031 21.390625 6.3125 C 20.648438 8.050781 19.875 9.539062 19.0625 10.78125 C 18.25 12.019531 17.363281 13.039062 16.40625 13.84375 C 15.445312 14.65625 14.351562 15.304688 13.125 15.796875 C 11.894531 16.285156 10.484375 16.617188 8.890625 16.796875 C 7.296875 16.984375 5.441406 17.078125 3.328125 17.078125 L 2.703125 17.078125 L 2.703125 13.71875 C 5.109375 13.71875 7.179688 13.359375 8.921875 12.640625 C 10.660156 11.921875 12.160156 10.9375 13.421875 9.6875 C 14.679688 8.4375 15.734375 6.957031 16.578125 5.25 C 17.421875 3.550781 18.132812 1.707031 18.71875 -0.28125 L 5.5625 -31.359375 C 5.226562 -32.097656 4.910156 -32.703125 4.609375 -33.171875 C 4.316406 -33.648438 3.976562 -34.039062 3.59375 -34.34375 C 3.207031 -34.644531 2.765625 -34.851562 2.265625 -34.96875 C 1.773438 -35.082031 1.179688 -35.140625 0.484375 -35.140625 L 0.28125 -35.140625 L 0.28125 -38.125 L 17.359375 -38.125 L 17.359375 -35.140625 L 17.15625 -35.140625 C 15.71875 -35.140625 14.644531 -34.859375 13.9375 -34.296875 C 13.226562 -33.742188 12.875 -32.878906 12.875 -31.703125 C 12.875 -31.304688 12.914062 -30.90625 13 -30.5 C 13.082031 -30.09375 13.226562 -29.625 13.4375 -29.09375 L 18.640625 -16.421875 C 18.960938 -15.609375 19.300781 -14.722656 19.65625 -13.765625 C 20.019531 -12.804688 20.359375 -11.859375 20.671875 -10.921875 C 20.984375 -9.984375 21.265625 -9.097656 21.515625 -8.265625 C 21.773438 -7.429688 21.953125 -6.710938 22.046875 -6.109375 L 22.25 -6.109375 C 22.507812 -7.148438 22.863281 -8.414062 23.3125 -9.90625 C 23.769531 -11.40625 24.296875 -13.007812 24.890625 -14.71875 L 29.65625 -28.578125 C 29.863281 -29.148438 30.019531 -29.703125 30.125 -30.234375 C 30.226562 -30.773438 30.28125 -31.238281 30.28125 -31.625 C 30.28125 -32.851562 29.890625 -33.742188 29.109375 -34.296875 C 28.335938 -34.859375 27.164062 -35.140625 25.59375 -35.140625 L 25.375 -35.140625 L 25.375 -38.125 Z M 40.171875 -38.125 "/></g></g></g><g fill="rgb(64.309692%, 30.979919%, 18.429565%)" fill-opacity="1"><g transform="translate(238.547617, 90.962416)"><g><path d="M 47.640625 -25.453125 C 47.640625 -21.566406 47.148438 -18.050781 46.171875 -14.90625 C 45.203125 -11.769531 43.753906 -9.097656 41.828125 -6.890625 C 39.910156 -4.679688 37.503906 -2.976562 34.609375 -1.78125 C 31.722656 -0.59375 28.347656 0 24.484375 0 L 2.703125 0 L 2.703125 -2.984375 L 3.609375 -2.984375 C 4.421875 -2.984375 5.175781 -3.039062 5.875 -3.15625 C 6.582031 -3.269531 7.203125 -3.503906 7.734375 -3.859375 C 8.273438 -4.222656 8.691406 -4.738281 8.984375 -5.40625 C 9.285156 -6.082031 9.4375 -6.976562 9.4375 -8.09375 L 9.4375 -42.953125 C 9.4375 -43.992188 9.28125 -44.832031 8.96875 -45.46875 C 8.65625 -46.101562 8.234375 -46.59375 7.703125 -46.9375 C 7.171875 -47.289062 6.550781 -47.519531 5.84375 -47.625 C 5.144531 -47.726562 4.398438 -47.78125 3.609375 -47.78125 L 2.703125 -47.78125 L 2.703125 -50.765625 L 24.484375 -50.765625 C 28.140625 -50.765625 31.398438 -50.203125 34.265625 -49.078125 C 37.140625 -47.953125 39.566406 -46.3125 41.546875 -44.15625 C 43.523438 -42.007812 45.035156 -39.363281 46.078125 -36.21875 C 47.117188 -33.070312 47.640625 -29.484375 47.640625 -25.453125 Z M 22.8125 -3.609375 C 25.632812 -3.609375 28.101562 -4.085938 30.21875 -5.046875 C 32.34375 -6.015625 34.109375 -7.421875 35.515625 -9.265625 C 36.929688 -11.117188 37.988281 -13.398438 38.6875 -16.109375 C 39.394531 -18.816406 39.75 -21.929688 39.75 -25.453125 C 39.75 -32.515625 38.34375 -37.90625 35.53125 -41.625 C 32.71875 -45.351562 28.5 -47.21875 22.875 -47.21875 L 16.625 -47.21875 L 16.625 -3.609375 Z M 22.8125 -3.609375 "/></g></g></g><g fill="rgb(64.309692%, 30.979919%, 18.429565%)" fill-opacity="1"><g transform="translate(290.239214, 90.962416)"><g><path d="M 19.546875 -35 C 16.910156 -35 14.878906 -33.925781 13.453125 -31.78125 C 12.023438 -29.644531 11.1875 -26.515625 10.9375 -22.390625 L 27.296875 -22.390625 C 27.296875 -24.265625 27.15625 -25.976562 26.875 -27.53125 C 26.59375 -29.082031 26.148438 -30.410156 25.546875 -31.515625 C 24.953125 -32.628906 24.160156 -33.488281 23.171875 -34.09375 C 22.191406 -34.695312 20.984375 -35 19.546875 -35 Z M 20.421875 0.6875 C 17.847656 0.6875 15.535156 0.253906 13.484375 -0.609375 C 11.441406 -1.472656 9.710938 -2.738281 8.296875 -4.40625 C 6.890625 -6.070312 5.804688 -8.113281 5.046875 -10.53125 C 4.296875 -12.957031 3.921875 -15.707031 3.921875 -18.78125 C 3.921875 -25.425781 5.285156 -30.425781 8.015625 -33.78125 C 10.753906 -37.132812 14.644531 -38.8125 19.6875 -38.8125 C 21.976562 -38.8125 24.035156 -38.453125 25.859375 -37.734375 C 27.691406 -37.023438 29.242188 -35.957031 30.515625 -34.53125 C 31.796875 -33.101562 32.773438 -31.332031 33.453125 -29.21875 C 34.140625 -27.101562 34.484375 -24.644531 34.484375 -21.84375 L 34.484375 -18.578125 L 10.796875 -18.578125 C 10.847656 -15.984375 11.109375 -13.753906 11.578125 -11.890625 C 12.054688 -10.023438 12.738281 -8.488281 13.625 -7.28125 C 14.519531 -6.082031 15.613281 -5.195312 16.90625 -4.625 C 18.207031 -4.0625 19.703125 -3.78125 21.390625 -3.78125 C 22.617188 -3.78125 23.757812 -3.921875 24.8125 -4.203125 C 25.863281 -4.484375 26.816406 -4.851562 27.671875 -5.3125 C 28.523438 -5.769531 29.28125 -6.296875 29.9375 -6.890625 C 30.601562 -7.484375 31.144531 -8.101562 31.5625 -8.75 C 31.882812 -8.613281 32.191406 -8.320312 32.484375 -7.875 C 32.773438 -7.4375 32.921875 -6.914062 32.921875 -6.3125 C 32.921875 -5.601562 32.664062 -4.835938 32.15625 -4.015625 C 31.644531 -3.191406 30.867188 -2.429688 29.828125 -1.734375 C 28.785156 -1.035156 27.484375 -0.457031 25.921875 0 C 24.359375 0.457031 22.523438 0.6875 20.421875 0.6875 Z M 20.421875 0.6875 "/></g></g></g><g fill="rgb(64.309692%, 30.979919%, 18.429565%)" fill-opacity="1"><g transform="translate(328.287567, 90.962416)"><g><path d="M 0.28125 -35.140625 L 0.28125 -38.125 L 18.0625 -38.125 L 18.0625 -35.140625 L 17.15625 -35.140625 C 15.71875 -35.140625 14.644531 -34.859375 13.9375 -34.296875 C 13.226562 -33.742188 12.875 -32.878906 12.875 -31.703125 C 12.875 -31.304688 12.921875 -30.90625 13.015625 -30.5 C 13.109375 -30.09375 13.25 -29.625 13.4375 -29.09375 L 18.265625 -15.65625 C 18.566406 -14.820312 18.878906 -13.898438 19.203125 -12.890625 C 19.523438 -11.890625 19.832031 -10.898438 20.125 -9.921875 C 20.414062 -8.953125 20.675781 -8.035156 20.90625 -7.171875 C 21.132812 -6.304688 21.296875 -5.570312 21.390625 -4.96875 L 21.625 -4.96875 C 21.75 -5.476562 21.941406 -6.109375 22.203125 -6.859375 C 22.472656 -7.609375 22.773438 -8.425781 23.109375 -9.3125 C 23.441406 -10.207031 23.785156 -11.117188 24.140625 -12.046875 C 24.503906 -12.972656 24.847656 -13.863281 25.171875 -14.71875 L 30.28125 -28.578125 C 30.507812 -29.148438 30.675781 -29.703125 30.78125 -30.234375 C 30.882812 -30.773438 30.9375 -31.238281 30.9375 -31.625 C 30.9375 -32.851562 30.546875 -33.742188 29.765625 -34.296875 C 28.992188 -34.859375 27.820312 -35.140625 26.25 -35.140625 L 25.734375 -35.140625 L 25.734375 -38.125 L 40.96875 -38.125 L 40.96875 -35.140625 L 40.109375 -35.140625 C 39.410156 -35.140625 38.816406 -35.0625 38.328125 -34.90625 C 37.847656 -34.757812 37.410156 -34.476562 37.015625 -34.0625 C 36.617188 -33.644531 36.238281 -33.078125 35.875 -32.359375 C 35.519531 -31.640625 35.125 -30.710938 34.6875 -29.578125 L 23.46875 0 L 16.984375 0 L 5.5625 -31.359375 C 5.28125 -32.097656 4.988281 -32.707031 4.6875 -33.1875 C 4.382812 -33.675781 4.035156 -34.066406 3.640625 -34.359375 C 3.253906 -34.648438 2.804688 -34.851562 2.296875 -34.96875 C 1.785156 -35.082031 1.179688 -35.140625 0.484375 -35.140625 Z M 0.28125 -35.140625 "/></g></g></g><path fill="rgb(76.078796%, 69.799805%, 50.19989%)" d="M 66.515625 70.125 C 58.851562 70.125 52.640625 76.335938 52.640625 84 C 52.640625 91.664062 58.851562 97.875 66.515625 97.875 C 74.179688 97.875 80.390625 91.664062 80.390625 84 C 80.390625 76.335938 74.179688 70.125 66.515625 70.125 " fill-opacity="1" fill-rule="nonzero"/><path fill="rgb(51.368713%, 24.708557%, 14.509583%)" d="M 46.324219 73.429688 C 45.753906 73.429688 45.289062 72.988281 45.289062 72.445312 L 45.289062 63.496094 C 45.289062 62.957031 45.753906 62.515625 46.324219 62.515625 L 47.625 62.515625 C 48.195312 62.515625 48.652344 62.957031 48.652344 63.496094 L 48.652344 72.445312 C 48.652344 72.988281 48.195312 73.429688 47.625 73.429688 L 46.324219 73.429688 " fill-opacity="1" fill-rule="nonzero"/><path fill="rgb(51.368713%, 24.708557%, 14.509583%)" d="M 37.152344 61.019531 C 37.152344 60.46875 37.570312 60.027344 38.085938 60.027344 L 55.867188 60.027344 C 56.378906 60.027344 56.792969 60.46875 56.792969 61.019531 L 56.792969 62.265625 C 56.792969 62.8125 56.378906 63.257812 55.867188 63.257812 L 38.085938 63.257812 C 37.570312 63.257812 37.152344 62.8125 37.152344 62.265625 L 37.152344 61.019531 " fill-opacity="1" fill-rule="nonzero"/><path fill="rgb(51.368713%, 24.708557%, 14.509583%)" d="M 58.738281 73.671875 C 58.738281 74.921875 57.789062 75.9375 56.621094 75.9375 L 37.332031 75.9375 C 36.15625 75.9375 35.210938 74.921875 35.210938 73.671875 L 35.210938 70.816406 C 35.210938 69.566406 36.15625 68.550781 37.332031 68.550781 L 56.621094 68.550781 C 57.789062 68.550781 58.738281 69.566406 58.738281 70.816406 L 58.738281 73.671875 " fill-opacity="1" fill-rule="nonzero"/><path fill="rgb(64.309692%, 30.979919%, 18.429565%)" d="M 72.800781 77.789062 L 38.308594 77.789062 C 37.988281 77.734375 37.664062 77.699219 37.328125 77.699219 L 25.359375 77.699219 C 19.164062 77.699219 14.296875 80.367188 11.292969 85.417969 C 8.824219 89.570312 7.625 95.386719 7.625 103.203125 C 7.625 106.414062 10.207031 109.019531 13.390625 109.019531 C 16.578125 109.019531 19.160156 106.414062 19.160156 103.203125 C 19.160156 89.335938 23.191406 89.335938 25.359375 89.335938 L 37.328125 89.335938 C 37.660156 89.335938 37.984375 89.304688 38.300781 89.25 L 72.800781 89.25 C 74.617188 89.25 76.089844 87.675781 76.089844 85.730469 L 76.089844 81.304688 C 76.089844 79.363281 74.617188 77.789062 72.800781 77.789062 " fill-opacity="1" fill-rule="nonzero"/><g clip-path="url(#id1)"><path fill="rgb(51.368713%, 24.708557%, 14.509583%)" d="M 21.277344 107.664062 C 21.277344 108.910156 20.332031 109.925781 19.164062 109.925781 L 7.621094 109.925781 C 6.453125 109.925781 5.5 108.910156 5.5 107.664062 L 5.5 104.804688 C 5.5 103.558594 6.453125 102.542969 7.621094 102.542969 L 19.164062 102.542969 C 20.332031 102.542969 21.277344 103.558594 21.277344 104.804688 L 21.277344 107.664062 " fill-opacity="1" fill-rule="nonzero"/></g><g clip-path="url(#id2)"><path fill="rgb(51.368713%, 24.708557%, 14.509583%)" d="M 74.671875 93.796875 C 73.433594 93.796875 72.425781 92.84375 72.425781 91.664062 L 72.425781 74.382812 C 72.425781 73.199219 73.433594 72.242188 74.671875 72.242188 L 77.5 72.242188 C 78.742188 72.242188 79.746094 73.199219 79.746094 74.382812 L 79.746094 91.664062 C 79.746094 92.84375 78.742188 93.796875 77.5 93.796875 L 74.671875 93.796875 " fill-opacity="1" fill-rule="nonzero"/></g><g clip-path="url(#id3)"><path fill="rgb(51.368713%, 24.708557%, 14.509583%)" d="M 52.832031 61.640625 C 52.832031 63.851562 54.601562 65.644531 56.792969 65.644531 C 58.980469 65.644531 60.757812 63.851562 60.757812 61.640625 C 60.757812 59.433594 58.980469 57.640625 56.792969 57.640625 C 54.601562 57.640625 52.832031 59.433594 52.832031 61.640625 " fill-opacity="1" fill-rule="nonzero"/></g><g clip-path="url(#id4)"><path fill="rgb(51.368713%, 24.708557%, 14.509583%)" d="M 33.191406 61.640625 C 33.191406 63.851562 34.964844 65.644531 37.152344 65.644531 C 39.34375 65.644531 41.121094 63.851562 41.121094 61.640625 C 41.121094 59.433594 39.34375 57.640625 37.152344 57.640625 C 34.964844 57.640625 33.191406 59.433594 33.191406 61.640625 " fill-opacity="1" fill-rule="nonzero"/></g><g clip-path="url(#id5)"><path fill="rgb(1.959229%, 25.878906%, 45.098877%)" d="M 18.761719 123.765625 C 18.761719 126.753906 16.359375 128.644531 13.394531 128.644531 C 10.429688 128.644531 8.023438 126.753906 8.023438 123.765625 C 8.023438 120.769531 12.265625 112.375 13.394531 112.375 C 14.640625 112.375 18.761719 120.769531 18.761719 123.765625 " fill-opacity="1" fill-rule="nonzero"/></g><path fill="rgb(64.309692%, 30.979919%, 18.429565%)" d="M 64.199219 89.425781 C 64.199219 92.390625 61.816406 94.796875 58.878906 94.796875 L 35.214844 94.796875 C 32.277344 94.796875 29.890625 92.390625 29.890625 89.425781 L 29.890625 77.609375 C 29.890625 74.644531 32.277344 72.242188 35.214844 72.242188 L 58.878906 72.242188 C 61.816406 72.242188 64.199219 74.644531 64.199219 77.609375 L 64.199219 89.425781 " fill-opacity="1" fill-rule="nonzero"/></svg>